<?xml version="1.0" encoding="UTF-8" standalone="no"?><!DOCTYPE svg PUBLIC "-//W3C//DTD SVG 1.1//EN" "http://www.w3.org/Graphics/SVG/1.1/DTD/svg11.dtd"><svg width="100%" height="100%" viewBox="0 0 1996 742" version="1.1" xmlns="http://www.w3.org/2000/svg" xmlns:xlink="http://www.w3.org/1999/xlink" xml:space="preserve" xmlns:serif="http://www.serif.com/" style="fill-rule:evenodd;clip-rule:evenodd;stroke-linejoin:round;stroke-miterlimit:2;"><rect id="dark_white" x="0.161" y="4.118" width="1994.47" height="737.472" style="fill:none;"/><g><path d="M317.52,395.642l-84.47,0l0,57.277l6.172,0c9.514,0 16.296,1.832 20.346,5.497c4.049,3.664 6.074,8.453 6.074,14.367c0,5.786 -2.025,10.51 -6.074,14.175c-4.05,3.664 -10.832,5.496 -20.346,5.496l-48.406,-0c-9.514,-0 -16.296,-1.832 -20.346,-5.496c-4.05,-3.665 -6.075,-8.454 -6.075,-14.368c0,-7.2 3.15,-12.792 9.45,-16.778c3.085,-2.057 9.642,-3.021 19.671,-2.893l-0,-154.667c-6.943,-0.643 -12.182,-2.764 -15.718,-6.364c-3.535,-3.6 -5.303,-8.1 -5.303,-13.5c-0,-5.914 2.025,-10.703 6.075,-14.367c4.05,-3.665 10.832,-5.497 20.346,-5.497l40.306,0.193c9.514,0 16.296,1.8 20.346,5.4c4.049,3.6 6.074,8.357 6.074,14.271c0,5.914 -2.025,10.703 -6.074,14.368c-4.05,3.664 -10.832,5.496 -20.346,5.496l-6.172,-0l0,57.856l84.47,-0l-0,-57.856l-6.172,-0c-9.514,-0 -16.296,-1.832 -20.346,-5.496c-4.049,-3.665 -6.074,-8.454 -6.074,-14.368c-0,-5.914 2.025,-10.703 6.074,-14.367c4.05,-3.665 10.832,-5.497 20.346,-5.497l40.306,0.193c9.514,0 16.296,1.8 20.346,5.4c4.05,3.6 6.075,8.357 6.075,14.271c0,5.4 -1.768,9.9 -5.303,13.5c-3.536,3.6 -8.775,5.721 -15.718,6.364l0,154.667c10.157,0 16.714,0.964 19.671,2.893c6.3,3.986 9.45,9.643 9.45,16.971c-0,5.786 -2.025,10.51 -6.075,14.175c-4.05,3.664 -10.832,5.496 -20.346,5.496l-48.406,-0c-9.514,-0 -16.296,-1.832 -20.346,-5.496c-4.049,-3.665 -6.074,-8.454 -6.074,-14.368c-0,-5.785 2.057,-10.51 6.171,-14.174c4.114,-3.665 10.864,-5.497 20.249,-5.497l6.172,0l-0,-57.277Z" style="fill:#fff;fill-rule:nonzero;"/><path d="M611.167,375.586c-0,35.099 -11.153,64.316 -33.46,87.651c-22.306,23.335 -48.117,35.002 -77.43,35.002c-26.356,0 -50.142,-9.706 -71.355,-29.12c-26.228,-24.042 -39.342,-55.22 -39.342,-93.533c-0,-38.314 13.114,-69.556 39.342,-93.727c21.213,-19.413 44.999,-29.12 71.355,-29.12c29.313,-0 55.124,11.667 77.43,35.002c22.307,23.336 33.46,52.617 33.46,87.845Zm-39.535,-0c0,-24.043 -7.264,-43.939 -21.792,-59.688c-14.528,-15.75 -31.049,-23.625 -49.563,-23.625c-18.385,0 -34.842,7.907 -49.37,23.721c-14.528,15.814 -21.792,35.678 -21.792,59.592c-0,23.913 7.264,43.745 21.792,59.494c14.528,15.75 30.985,23.625 49.37,23.625c18.514,-0 35.035,-7.843 49.563,-23.528c14.528,-15.685 21.792,-35.549 21.792,-59.591Z" style="fill:#fff;fill-rule:nonzero;"/><path d="M664.328,335.087l-0,117.832l14.271,0c9.514,0 16.296,1.832 20.346,5.497c4.05,3.664 6.075,8.453 6.075,14.367c-0,5.786 -2.025,10.51 -6.075,14.175c-4.05,3.664 -10.832,5.496 -20.346,5.496l-51.877,-0c-9.514,-0 -16.296,-1.832 -20.346,-5.496c-4.05,-3.665 -6.075,-8.454 -6.075,-14.368c-0,-5.785 1.993,-10.51 5.978,-14.174c3.986,-3.665 10.157,-5.497 18.514,-5.497l0,-154.667c-6.943,-0.643 -12.182,-2.764 -15.717,-6.364c-3.536,-3.6 -5.304,-8.1 -5.304,-13.5c0,-5.914 2.025,-10.703 6.075,-14.367c4.05,-3.665 10.832,-5.497 20.346,-5.497l43.392,0.193l53.805,118.99l52.842,-119.183l43.777,0.193c9.514,0 16.296,1.8 20.346,5.4c4.05,3.6 6.075,8.357 6.075,14.271c-0,5.4 -1.8,9.9 -5.4,13.5c-3.6,3.6 -8.807,5.721 -15.621,6.364l0,154.667c8.357,0 14.528,1.864 18.514,5.593c3.985,3.728 5.978,8.485 5.978,14.271c0,5.786 -2.025,10.51 -6.075,14.175c-4.049,3.664 -10.831,5.496 -20.345,5.496l-52.07,-0c-9.386,-0 -16.104,-1.832 -20.154,-5.496c-4.049,-3.665 -6.074,-8.454 -6.074,-14.368c-0,-5.785 2.025,-10.51 6.074,-14.174c4.05,-3.665 10.768,-5.497 20.154,-5.497l14.463,0l0,-117.832l-45.32,101.826l-34.327,-0l-45.899,-101.826Z" style="fill:#fff;fill-rule:nonzero;"/><path d="M971.86,298.252l0,154.667l39.921,0c9.514,0 16.296,1.832 20.346,5.497c4.05,3.664 6.074,8.453 6.074,14.367c0,5.786 -2.024,10.51 -6.074,14.175c-4.05,3.664 -10.832,5.496 -20.346,5.496l-119.376,-0c-9.514,-0 -16.296,-1.832 -20.346,-5.496c-4.049,-3.665 -6.074,-8.454 -6.074,-14.368c-0,-5.785 2.025,-10.51 6.074,-14.174c4.05,-3.665 10.832,-5.497 20.346,-5.497l39.921,0l-0,-154.667l-39.921,-0c-9.514,-0 -16.296,-1.832 -20.346,-5.496c-4.049,-3.665 -6.074,-8.454 -6.074,-14.368c-0,-5.914 2.025,-10.703 6.074,-14.367c4.05,-3.665 10.832,-5.497 20.346,-5.497l119.376,0.193c9.514,0 16.296,1.8 20.346,5.4c4.05,3.6 6.074,8.357 6.074,14.271c0,5.914 -2.024,10.703 -6.074,14.368c-4.05,3.664 -10.832,5.496 -20.346,5.496l-39.921,-0Z" style="fill:#fff;fill-rule:nonzero;"/><path d="M1128.58,333.351l-0,119.568l14.271,0c9.514,0 16.296,1.832 20.346,5.497c4.05,3.664 6.075,8.453 6.075,14.367c-0,5.786 -2.025,10.51 -6.075,14.175c-4.05,3.664 -10.832,5.496 -20.346,5.496l-51.877,-0c-9.514,-0 -16.296,-1.832 -20.346,-5.496c-4.05,-3.665 -6.075,-8.454 -6.075,-14.368c-0,-5.657 1.993,-10.35 5.978,-14.078c3.986,-3.729 10.157,-5.593 18.514,-5.593l0,-154.667l-6.171,-0c-9.514,-0 -16.296,-1.832 -20.346,-5.496c-4.05,-3.665 -6.075,-8.454 -6.075,-14.368c0,-5.914 2.025,-10.703 6.075,-14.367c4.05,-3.665 10.832,-5.497 20.346,-5.497l45.706,0.193l101.054,158.525l0,-118.99l-14.271,-0c-9.514,-0 -16.296,-1.832 -20.346,-5.496c-4.05,-3.665 -6.075,-8.454 -6.075,-14.368c0,-5.914 2.025,-10.703 6.075,-14.367c4.05,-3.665 10.832,-5.497 20.346,-5.497l51.877,0.193c9.514,0 16.296,1.8 20.346,5.4c4.05,3.6 6.075,8.357 6.075,14.271c0,5.786 -1.993,10.543 -5.978,14.271c-3.986,3.729 -10.093,5.593 -18.321,5.593l-0,194.202l-39.149,-0l-101.633,-159.103Z" style="fill:#fff;fill-rule:nonzero;"/><path d="M1363.41,394.871l0,58.048l100.862,0l-0,-21.406c-0,-9.514 1.832,-16.296 5.496,-20.346c3.664,-4.05 8.453,-6.075 14.368,-6.075c5.785,-0 10.51,2.025 14.174,6.075c3.664,4.05 5.496,10.832 5.496,20.346l0,60.941l-186.102,-0c-9.514,-0 -16.296,-1.832 -20.346,-5.496c-4.05,-3.665 -6.074,-8.454 -6.074,-14.368c-0,-5.785 2.057,-10.51 6.171,-14.174c4.114,-3.665 10.864,-5.497 20.249,-5.497l6.172,0l-0,-154.667l-6.172,-0c-9.514,-0 -16.296,-1.832 -20.346,-5.496c-4.05,-3.665 -6.074,-8.454 -6.074,-14.368c-0,-5.914 2.024,-10.703 6.074,-14.367c4.05,-3.665 10.832,-5.497 20.346,-5.497l177.424,0.193l0,60.17c0,9.386 -1.8,16.103 -5.4,20.153c-3.6,4.05 -8.357,6.075 -14.271,6.075c-5.914,-0 -10.703,-1.993 -14.367,-5.978c-3.664,-3.986 -5.497,-10.736 -5.497,-20.25l0,-20.635l-92.183,-0l0,57.084l34.714,0c-0,-10.285 0.964,-16.907 2.892,-19.864c3.986,-6.299 9.643,-9.449 16.971,-9.449c5.786,-0 10.511,2.025 14.175,6.074c3.664,4.05 5.496,10.832 5.496,20.346l0,45.513c0,8.614 -1.028,14.4 -3.085,17.357c-4.115,6.043 -9.643,9.064 -16.586,9.064c-7.328,0 -12.985,-3.15 -16.971,-9.45c-1.928,-2.957 -2.892,-9.642 -2.892,-20.056l-34.714,-0Z" style="fill:#fff;fill-rule:nonzero;"/><path d="M1568.15,335.087l-0,117.832l14.271,0c9.514,0 16.296,1.832 20.346,5.497c4.05,3.664 6.075,8.453 6.075,14.367c-0,5.786 -2.025,10.51 -6.075,14.175c-4.05,3.664 -10.832,5.496 -20.346,5.496l-51.877,-0c-9.514,-0 -16.296,-1.832 -20.346,-5.496c-4.05,-3.665 -6.075,-8.454 -6.075,-14.368c-0,-5.785 1.993,-10.51 5.978,-14.174c3.986,-3.665 10.157,-5.497 18.514,-5.497l0,-154.667c-6.943,-0.643 -12.182,-2.764 -15.717,-6.364c-3.536,-3.6 -5.304,-8.1 -5.304,-13.5c0,-5.914 2.025,-10.703 6.075,-14.367c4.05,-3.665 10.832,-5.497 20.346,-5.497l43.392,0.193l53.805,118.99l52.842,-119.183l43.777,0.193c9.514,0 16.296,1.8 20.346,5.4c4.05,3.6 6.075,8.357 6.075,14.271c-0,5.4 -1.8,9.9 -5.4,13.5c-3.6,3.6 -8.807,5.721 -15.621,6.364l0,154.667c8.357,0 14.528,1.864 18.514,5.593c3.985,3.728 5.978,8.485 5.978,14.271c0,5.786 -2.025,10.51 -6.075,14.175c-4.049,3.664 -10.831,5.496 -20.345,5.496l-52.07,-0c-9.386,-0 -16.104,-1.832 -20.154,-5.496c-4.049,-3.665 -6.074,-8.454 -6.074,-14.368c-0,-5.785 2.025,-10.51 6.074,-14.174c4.05,-3.665 10.768,-5.497 20.154,-5.497l14.463,0l0,-117.832l-45.32,101.826l-34.327,-0l-45.899,-101.826Z" style="fill:#fff;fill-rule:nonzero;"/></g><path d="M1828.19,274.644l0,29.236l3.275,0c2.184,0 3.675,0.4 4.473,1.198c1.066,1.012 1.598,2.264 1.598,3.755c0,1.491 -0.532,2.742 -1.598,3.754c-0.798,0.746 -2.289,1.119 -4.473,1.119l-11.982,-0c-2.13,-0 -3.675,-0.44 -4.633,-1.319c-0.959,-0.878 -1.438,-2.063 -1.438,-3.554c0,-1.491 0.466,-2.69 1.398,-3.595c0.932,-0.905 2.356,-1.358 4.274,-1.358l-0,-38.422c-1.598,-0.16 -2.81,-0.679 -3.635,-1.558c-0.825,-0.879 -1.238,-2.01 -1.238,-3.395c-0,-1.491 0.532,-2.743 1.597,-3.754c0.853,-0.746 2.344,-1.119 4.474,-1.119l9.985,0l12.381,29.636l12.222,-29.636l10.065,0c2.13,0 3.621,0.373 4.473,1.119c1.066,1.011 1.598,2.263 1.598,3.754c0,1.385 -0.413,2.516 -1.238,3.395c-0.826,0.879 -2.037,1.398 -3.635,1.558l0,38.422c1.917,0 3.342,0.453 4.274,1.358c0.932,0.905 1.398,2.104 1.398,3.595c-0,1.491 -0.533,2.742 -1.598,3.754c-0.852,0.746 -2.343,1.119 -4.473,1.119l-11.982,-0c-2.184,-0 -3.741,-0.44 -4.673,-1.319c-0.932,-0.878 -1.398,-2.063 -1.398,-3.554c-0,-1.491 0.532,-2.743 1.598,-3.755c0.852,-0.798 2.343,-1.198 4.473,-1.198l3.275,0l-0,-29.236l-10.385,25.322l-7.908,0l-10.544,-25.322Zm-33.63,-9.186l0,38.422l6.151,0c2.13,0 3.675,0.453 4.633,1.358c0.959,0.905 1.438,2.104 1.438,3.595c-0,1.491 -0.533,2.742 -1.598,3.754c-0.798,0.746 -2.29,1.119 -4.473,1.119l-21.328,-0c-2.29,-0 -3.874,-0.373 -4.753,-1.119c-0.879,-0.745 -1.318,-1.917 -1.318,-3.515c-0,-1.704 0.453,-2.995 1.358,-3.874c0.905,-0.878 2.476,-1.318 4.713,-1.318l6.071,0l-0,-38.422l-9.826,-0l0,9.346c0,2.396 -0.426,4.087 -1.278,5.072c-0.852,0.985 -1.943,1.478 -3.275,1.478c-1.331,-0 -2.423,-0.493 -3.275,-1.478c-0.852,-0.985 -1.278,-2.676 -1.278,-5.072l0,-19.172l47.13,0l-0,19.172c-0,2.396 -0.426,4.087 -1.278,5.072c-0.852,0.985 -1.944,1.478 -3.275,1.478c-1.332,-0 -2.424,-0.493 -3.276,-1.478c-0.852,-0.985 -1.278,-2.676 -1.278,-5.072l0,-9.346l-9.985,-0Z" style="fill:#fff;fill-rule:nonzero;"/><rect x="165.874" y="514.786" width="1619.37" height="21.762" style="fill:#fff;"/></svg>