<?xml version="1.0" encoding="UTF-8" standalone="no"?><!DOCTYPE svg PUBLIC "-//W3C//DTD SVG 1.1//EN" "http://www.w3.org/Graphics/SVG/1.1/DTD/svg11.dtd"><svg width="100%" height="100%" viewBox="0 0 1996 738" version="1.1" xmlns="http://www.w3.org/2000/svg" xmlns:xlink="http://www.w3.org/1999/xlink" xml:space="preserve" xmlns:serif="http://www.serif.com/" style="fill-rule:evenodd;clip-rule:evenodd;stroke-linejoin:round;stroke-miterlimit:2;"><rect id="light_black" x="0" y="0" width="1994.47" height="737.472" style="fill:none;"/><g><path d="M317.359,391.524l-84.469,-0l-0,57.277l6.171,-0c9.514,-0 16.296,1.832 20.346,5.496c4.05,3.664 6.075,8.453 6.075,14.368c-0,5.785 -2.025,10.51 -6.075,14.174c-4.05,3.664 -10.832,5.496 -20.346,5.496l-48.406,0c-9.514,0 -16.296,-1.832 -20.346,-5.496c-4.05,-3.664 -6.075,-8.453 -6.075,-14.367c0,-7.2 3.15,-12.793 9.45,-16.778c3.086,-2.058 9.643,-3.022 19.671,-2.893l-0,-154.668c-6.943,-0.642 -12.182,-2.764 -15.717,-6.364c-3.536,-3.6 -5.304,-8.099 -5.304,-13.499c0,-5.914 2.025,-10.704 6.075,-14.368c4.05,-3.664 10.832,-5.496 20.346,-5.496l40.306,0.193c9.514,-0 16.296,1.8 20.346,5.4c4.05,3.6 6.075,8.357 6.075,14.271c-0,5.914 -2.025,10.703 -6.075,14.367c-4.05,3.664 -10.832,5.496 -20.346,5.496l-6.171,0l-0,57.856l84.469,0l-0,-57.856l-6.171,0c-9.514,0 -16.296,-1.832 -20.346,-5.496c-4.05,-3.664 -6.075,-8.453 -6.075,-14.367c-0,-5.914 2.025,-10.704 6.075,-14.368c4.05,-3.664 10.832,-5.496 20.346,-5.496l40.306,0.193c9.514,-0 16.296,1.8 20.346,5.4c4.049,3.6 6.074,8.357 6.074,14.271c0,5.4 -1.767,9.899 -5.303,13.499c-3.536,3.6 -8.775,5.722 -15.718,6.364l0,154.668c10.157,-0 16.714,0.964 19.671,2.893c6.3,3.985 9.45,9.642 9.45,16.971c0,5.785 -2.025,10.51 -6.075,14.174c-4.05,3.664 -10.832,5.496 -20.346,5.496l-48.405,0c-9.514,0 -16.296,-1.832 -20.346,-5.496c-4.05,-3.664 -6.075,-8.453 -6.075,-14.367c-0,-5.786 2.057,-10.511 6.171,-14.175c4.114,-3.664 10.864,-5.496 20.25,-5.496l6.171,-0l-0,-57.277Z" style="fill-rule:nonzero;"/><path d="M611.006,371.467c0,35.099 -11.153,64.316 -33.46,87.651c-22.306,23.335 -48.116,35.003 -77.43,35.003c-26.356,-0 -50.141,-9.707 -71.355,-29.121c-26.228,-24.042 -39.342,-55.22 -39.342,-93.533c0,-38.313 13.114,-69.555 39.342,-93.726c21.214,-19.414 44.999,-29.121 71.355,-29.121c29.314,0 55.124,11.668 77.43,35.003c22.307,23.335 33.46,52.616 33.46,87.844Zm-39.535,0c0,-24.042 -7.264,-43.938 -21.792,-59.688c-14.528,-15.749 -31.049,-23.624 -49.563,-23.624c-18.385,-0 -34.842,7.907 -49.37,23.721c-14.528,15.814 -21.792,35.677 -21.792,59.591c-0,23.914 7.264,43.745 21.792,59.495c14.528,15.75 30.985,23.624 49.37,23.624c18.514,0 35.035,-7.842 49.563,-23.528c14.528,-15.685 21.792,-35.549 21.792,-59.591Z" style="fill-rule:nonzero;"/><path d="M664.167,330.968l-0,117.833l14.271,-0c9.514,-0 16.296,1.832 20.346,5.496c4.05,3.664 6.075,8.453 6.075,14.368c-0,5.785 -2.025,10.51 -6.075,14.174c-4.05,3.664 -10.832,5.496 -20.346,5.496l-51.877,0c-9.514,0 -16.296,-1.832 -20.346,-5.496c-4.05,-3.664 -6.075,-8.453 -6.075,-14.367c0,-5.786 1.993,-10.511 5.979,-14.175c3.985,-3.664 10.156,-5.496 18.513,-5.496l0,-154.668c-6.942,-0.642 -12.182,-2.764 -15.717,-6.364c-3.536,-3.6 -5.304,-8.099 -5.304,-13.499c0,-5.914 2.025,-10.704 6.075,-14.368c4.05,-3.664 10.832,-5.496 20.346,-5.496l43.392,0.193l53.806,118.989l52.841,-119.182l43.777,0.193c9.514,-0 16.296,1.8 20.346,5.4c4.05,3.6 6.075,8.357 6.075,14.271c0,5.4 -1.8,9.899 -5.4,13.499c-3.6,3.6 -8.807,5.722 -15.621,6.364l0,154.668c8.357,-0 14.529,1.864 18.514,5.592c3.986,3.729 5.979,8.486 5.979,14.272c-0,5.785 -2.025,10.51 -6.075,14.174c-4.05,3.664 -10.832,5.496 -20.346,5.496l-52.07,0c-9.386,0 -16.103,-1.832 -20.153,-5.496c-4.05,-3.664 -6.075,-8.453 -6.075,-14.367c-0,-5.786 2.025,-10.511 6.075,-14.175c4.05,-3.664 10.767,-5.496 20.153,-5.496l14.464,-0l-0,-117.833l-45.321,101.826l-34.327,0l-45.899,-101.826Z" style="fill-rule:nonzero;"/><path d="M971.7,294.133l-0,154.668l39.92,-0c9.514,-0 16.296,1.832 20.346,5.496c4.05,3.664 6.075,8.453 6.075,14.368c-0,5.785 -2.025,10.51 -6.075,14.174c-4.05,3.664 -10.832,5.496 -20.346,5.496l-119.375,0c-9.514,0 -16.296,-1.832 -20.346,-5.496c-4.05,-3.664 -6.075,-8.453 -6.075,-14.367c-0,-5.786 2.025,-10.511 6.075,-14.175c4.05,-3.664 10.832,-5.496 20.346,-5.496l39.92,-0l-0,-154.668l-39.92,0c-9.514,0 -16.296,-1.832 -20.346,-5.496c-4.05,-3.664 -6.075,-8.453 -6.075,-14.367c-0,-5.914 2.025,-10.704 6.075,-14.368c4.05,-3.664 10.832,-5.496 20.346,-5.496l119.375,0.193c9.514,-0 16.296,1.8 20.346,5.4c4.05,3.6 6.075,8.357 6.075,14.271c-0,5.914 -2.025,10.703 -6.075,14.367c-4.05,3.664 -10.832,5.496 -20.346,5.496l-39.92,0Z" style="fill-rule:nonzero;"/><path d="M1128.42,329.232l0,119.569l14.271,-0c9.514,-0 16.296,1.832 20.346,5.496c4.05,3.664 6.075,8.453 6.075,14.368c-0,5.785 -2.025,10.51 -6.075,14.174c-4.05,3.664 -10.832,5.496 -20.346,5.496l-51.877,0c-9.514,0 -16.296,-1.832 -20.346,-5.496c-4.05,-3.664 -6.075,-8.453 -6.075,-14.367c0,-5.657 1.993,-10.35 5.979,-14.079c3.985,-3.728 10.156,-5.592 18.513,-5.592l0,-154.668l-6.171,0c-9.514,0 -16.296,-1.832 -20.346,-5.496c-4.05,-3.664 -6.075,-8.453 -6.075,-14.367c0,-5.914 2.025,-10.704 6.075,-14.368c4.05,-3.664 10.832,-5.496 20.346,-5.496l45.706,0.193l101.054,158.524l0,-118.99l-14.271,0c-9.514,0 -16.296,-1.832 -20.345,-5.496c-4.05,-3.664 -6.075,-8.453 -6.075,-14.367c-0,-5.914 2.025,-10.704 6.075,-14.368c4.049,-3.664 10.831,-5.496 20.345,-5.496l51.878,0.193c9.514,-0 16.296,1.8 20.346,5.4c4.049,3.6 6.074,8.357 6.074,14.271c0,5.785 -1.992,10.542 -5.978,14.271c-3.986,3.728 -10.093,5.592 -18.321,5.592l-0,194.202l-39.149,0l-101.633,-159.103Z" style="fill-rule:nonzero;"/><path d="M1363.25,390.752l0,58.049l100.862,-0l0,-21.407c0,-9.514 1.832,-16.296 5.496,-20.346c3.665,-4.05 8.454,-6.075 14.368,-6.075c5.785,0 10.51,2.025 14.174,6.075c3.665,4.05 5.497,10.832 5.497,20.346l-0,60.941l-186.102,0c-9.515,0 -16.296,-1.832 -20.346,-5.496c-4.05,-3.664 -6.075,-8.453 -6.075,-14.367c-0,-5.786 2.057,-10.511 6.171,-14.175c4.114,-3.664 10.864,-5.496 20.25,-5.496l6.171,-0l-0,-154.668l-6.171,0c-9.515,0 -16.296,-1.832 -20.346,-5.496c-4.05,-3.664 -6.075,-8.453 -6.075,-14.367c-0,-5.914 2.025,-10.704 6.075,-14.368c4.05,-3.664 10.831,-5.496 20.346,-5.496l177.423,0.193l0,60.17c0,9.385 -1.8,16.103 -5.399,20.153c-3.6,4.05 -8.357,6.074 -14.272,6.074c-5.914,0 -10.703,-1.992 -14.367,-5.978c-3.664,-3.986 -5.496,-10.735 -5.496,-20.249l-0,-20.636l-92.184,0l0,57.085l34.714,-0c-0,-10.286 0.964,-16.907 2.893,-19.864c3.985,-6.3 9.642,-9.45 16.971,-9.45c5.785,0 10.51,2.025 14.174,6.075c3.664,4.05 5.496,10.832 5.496,20.346l0,45.513c0,8.614 -1.028,14.4 -3.085,17.357c-4.114,6.042 -9.643,9.064 -16.585,9.064c-7.329,-0 -12.986,-3.15 -16.971,-9.45c-1.929,-2.957 -2.893,-9.643 -2.893,-20.057l-34.714,0Z" style="fill-rule:nonzero;"/><path d="M1567.99,330.968l-0,117.833l14.271,-0c9.514,-0 16.296,1.832 20.346,5.496c4.05,3.664 6.075,8.453 6.075,14.368c-0,5.785 -2.025,10.51 -6.075,14.174c-4.05,3.664 -10.832,5.496 -20.346,5.496l-51.877,0c-9.514,0 -16.296,-1.832 -20.346,-5.496c-4.05,-3.664 -6.075,-8.453 -6.075,-14.367c0,-5.786 1.993,-10.511 5.979,-14.175c3.985,-3.664 10.156,-5.496 18.513,-5.496l0,-154.668c-6.942,-0.642 -12.182,-2.764 -15.717,-6.364c-3.536,-3.6 -5.304,-8.099 -5.304,-13.499c0,-5.914 2.025,-10.704 6.075,-14.368c4.05,-3.664 10.832,-5.496 20.346,-5.496l43.392,0.193l53.806,118.989l52.841,-119.182l43.777,0.193c9.515,-0 16.296,1.8 20.346,5.4c4.05,3.6 6.075,8.357 6.075,14.271c0,5.4 -1.8,9.899 -5.4,13.499c-3.6,3.6 -8.807,5.722 -15.621,6.364l0,154.668c8.357,-0 14.529,1.864 18.514,5.592c3.986,3.729 5.979,8.486 5.979,14.272c-0,5.785 -2.025,10.51 -6.075,14.174c-4.05,3.664 -10.832,5.496 -20.346,5.496l-52.07,0c-9.386,0 -16.103,-1.832 -20.153,-5.496c-4.05,-3.664 -6.075,-8.453 -6.075,-14.367c-0,-5.786 2.025,-10.511 6.075,-14.175c4.05,-3.664 10.767,-5.496 20.153,-5.496l14.464,-0l-0,-117.833l-45.321,101.826l-34.327,0l-45.899,-101.826Z" style="fill-rule:nonzero;"/></g><path d="M1815.95,269.764l0,29.236l3.276,0c2.183,0 3.674,0.399 4.473,1.198c1.065,1.012 1.597,2.264 1.597,3.755c0,1.491 -0.532,2.742 -1.597,3.754c-0.799,0.746 -2.29,1.118 -4.473,1.118l-11.983,0c-2.13,0 -3.674,-0.439 -4.633,-1.318c-0.958,-0.878 -1.438,-2.063 -1.438,-3.554c0,-1.491 0.466,-2.69 1.398,-3.595c0.932,-0.905 2.357,-1.358 4.274,-1.358l0,-38.423c-1.598,-0.159 -2.809,-0.679 -3.635,-1.557c-0.825,-0.879 -1.238,-2.011 -1.238,-3.395c0,-1.491 0.533,-2.743 1.598,-3.755c0.852,-0.745 2.343,-1.118 4.473,-1.118l9.985,0l12.382,29.636l12.222,-29.636l10.065,0c2.13,0 3.621,0.373 4.473,1.118c1.065,1.012 1.597,2.264 1.597,3.755c0,1.384 -0.412,2.516 -1.238,3.395c-0.825,0.878 -2.037,1.398 -3.634,1.557l-0,38.423c1.917,0 3.341,0.453 4.273,1.358c0.932,0.905 1.398,2.104 1.398,3.595c0,1.491 -0.532,2.742 -1.597,3.754c-0.852,0.746 -2.343,1.118 -4.474,1.118l-11.982,0c-2.183,0 -3.741,-0.439 -4.673,-1.318c-0.932,-0.878 -1.398,-2.063 -1.398,-3.554c0,-1.491 0.533,-2.743 1.598,-3.755c0.852,-0.799 2.343,-1.198 4.473,-1.198l3.275,0l0,-29.236l-10.384,25.322l-7.908,-0l-10.545,-25.322Zm-33.629,-9.187l-0,38.423l6.15,0c2.131,0 3.675,0.453 4.634,1.358c0.958,0.905 1.437,2.104 1.437,3.595c0,1.491 -0.532,2.742 -1.597,3.754c-0.799,0.746 -2.29,1.118 -4.474,1.118l-21.328,0c-2.29,0 -3.874,-0.372 -4.753,-1.118c-0.878,-0.746 -1.318,-1.917 -1.318,-3.515c0,-1.704 0.453,-2.995 1.358,-3.874c0.906,-0.879 2.477,-1.318 4.713,-1.318l6.071,0l0,-38.423l-9.825,0l-0,9.346c-0,2.397 -0.426,4.088 -1.278,5.073c-0.852,0.985 -1.944,1.478 -3.275,1.478c-1.332,-0 -2.423,-0.493 -3.275,-1.478c-0.852,-0.985 -1.278,-2.676 -1.278,-5.073l-0,-19.171l47.129,0l0,19.171c0,2.397 -0.426,4.088 -1.278,5.073c-0.852,0.985 -1.944,1.478 -3.275,1.478c-1.331,-0 -2.423,-0.493 -3.275,-1.478c-0.852,-0.985 -1.278,-2.676 -1.278,-5.073l-0,-9.346l-9.985,0Z" style="fill-rule:nonzero;"/><rect x="165.713" y="510.668" width="1619.37" height="21.762"/></svg>